<?xml version="1.0" encoding="iso-8859-1"?>
<!-- Uploaded to: SVG Repo, www.svgrepo.com, Generator: SVG Repo Mixer Tools -->
<svg fill="#000000" height="800px" width="800px" version="1.1" id="Layer_1" xmlns="http://www.w3.org/2000/svg" xmlns:xlink="http://www.w3.org/1999/xlink" 
	 viewBox="0 0 299.404 299.404" xml:space="preserve">
<g>
	<g>
		<g>
			<path d="M297.341,78.155L221.249,2.062c-2.895-2.893-7.668-2.728-10.345,0.405l-75.38,88.193
				c-2.391,2.798-2.228,6.964,0.373,9.566l26.655,26.654l-69.114,69.114c-9.584-5.257-21.882-3.838-29.992,4.27L7.38,256.331
				c-9.839,9.84-9.84,25.851,0,35.692l0.001,0.001c9.842,9.84,25.851,9.839,35.692,0l56.066-56.066
				c8.108-8.109,9.529-20.407,4.271-29.993l69.113-69.113l26.654,26.655c2.604,2.602,6.767,2.764,9.566,0.373l88.193-75.38
				C300.062,85.829,300.241,81.055,297.341,78.155z M89.166,225.987L33.1,282.054c-4.342,4.344-11.408,4.342-15.752,0.001
				c-4.342-4.344-4.342-11.41,0.001-15.752l56.066-56.066c4.341-4.343,11.404-4.341,15.746-0.005
				c0.002,0.001,0.003,0.003,0.005,0.005c0.001,0.002,0.003,0.003,0.005,0.005C93.51,214.584,93.508,221.647,89.166,225.987z
				 M204.538,148.927l-54.061-54.061l66.192-77.442l65.31,65.31L204.538,148.927z"/>
			<path d="M211.633,47.05l-37.156,37.155c-2.753,2.754-2.753,7.217,0,9.971c2.755,2.753,7.217,2.752,9.971,0l37.155-37.155
				c2.753-2.754,2.753-7.217,0-9.971C218.85,44.298,214.387,44.298,211.633,47.05z"/>
			<path d="M189.853,109.551c2.755,2.753,7.217,2.752,9.971,0l37.155-37.155c2.753-2.754,2.753-7.217,0-9.971
				c-2.754-2.752-7.217-2.752-9.971,0l-37.155,37.155C187.099,102.334,187.099,106.797,189.853,109.551z"/>
			<path d="M205.227,124.926c2.755,2.753,7.217,2.752,9.971,0l37.155-37.155c2.753-2.754,2.753-7.217,0-9.971
				c-2.754-2.752-7.217-2.752-9.971,0l-37.155,37.155C202.474,117.71,202.474,122.173,205.227,124.926z"/>
		</g>
	</g>
</g>
</svg>